<?xml version="1.0" encoding="utf-8"?>
<!-- Generator: Adobe Illustrator 26.5.0, SVG Export Plug-In . SVG Version: 6.00 Build 0)  -->
<svg version="1.1" id="Layer_1" xmlns="http://www.w3.org/2000/svg" xmlns:xlink="http://www.w3.org/1999/xlink" x="0px" y="0px"
	 viewBox="0 0 1080 1080" style="enable-background:new 0 0 1080 1080;" xml:space="preserve">
<style type="text/css">
	.st0{clip-path:url(#SVGID_00000046325522289821395200000013503923700708270271_);}
	.st1{stroke:#FFFFFF;stroke-width:1.4622;stroke-miterlimit:10;}
	.st2{clip-path:url(#SVGID_00000108289604177562362900000009811845184806665885_);}
	.st3{fill:none;stroke:#000000;stroke-width:1.4622;}
	.st4{fill:#B9FF66;}
	.st5{fill:#FFFFFF;}
</style>
<g>
	<defs>
		<rect id="SVGID_1_" x="545.73" y="810.14" width="52.64" height="52.64"/>
	</defs>
	<clipPath id="SVGID_00000117642638928926414290000008838328798900160703_">
		<use xlink:href="#SVGID_1_"  style="overflow:visible;"/>
	</clipPath>
	<g style="clip-path:url(#SVGID_00000117642638928926414290000008838328798900160703_);">
		<path class="st1" d="M572.05,818.23l25.74-7.58l-7.51,25.81l7.51,25.74l-25.74-7.51l-25.81,7.51l7.58-25.74l-7.58-25.81
			L572.05,818.23z"/>
	</g>
</g>
<g>
	<defs>
		
			<rect id="SVGID_00000168119238555036351420000015553775345156614315_" x="223.42" y="664.75" transform="matrix(0.7071 -0.7071 0.7071 0.7071 -425.9054 404.0953)" width="102.83" height="102.83"/>
	</defs>
	<clipPath id="SVGID_00000086650959329881629640000000324311711719781272_">
		<use xlink:href="#SVGID_00000168119238555036351420000015553775345156614315_"  style="overflow:visible;"/>
	</clipPath>
	<g style="clip-path:url(#SVGID_00000086650959329881629640000000324311711719781272_);">
		<path class="st1" d="M300.01,690.98l46.02,25.08l-46.02,25.28l-25.18,45.92l-25.18-45.92l-46.02-25.28l46.02-25.08l25.18-46.12
			L300.01,690.98z"/>
	</g>
</g>
<path class="st3" d="M942.84,755.06c-2.78,5.04-7.95,8.68-15.4,10.94c-7.45,2.26-17.12,3.11-28.76,2.61
	c-23.28-1-54.28-7.42-90.85-18.62c-73.14-22.39-168.42-63.83-268.49-119.03c-100.07-55.2-185.95-113.68-243.9-163.6
	c-28.98-24.97-50.95-47.76-64.21-66.92c-6.63-9.58-11.07-18.21-13.13-25.72c-2.06-7.51-1.74-13.83,1.04-18.86
	c2.78-5.04,7.95-8.68,15.4-10.94c7.45-2.26,17.12-3.11,28.76-2.61c23.28,1,54.28,7.42,90.86,18.62
	c73.14,22.39,168.42,63.83,268.49,119.03c100.07,55.2,185.95,113.68,243.9,163.6c28.98,24.96,50.94,47.76,64.21,66.92
	c6.63,9.58,11.07,18.21,13.13,25.72C945.93,743.71,945.61,750.03,942.84,755.06z"/>
<path class="st3" d="M913.26,808.69c-2.78,5.04-7.95,8.68-15.4,10.94c-7.45,2.26-17.12,3.11-28.76,2.61
	c-23.28-1-54.28-7.42-90.86-18.62c-73.14-22.39-168.42-63.83-268.49-119.03c-100.07-55.2-185.95-113.68-243.9-163.6
	c-28.98-24.97-50.94-47.76-64.21-66.92c-6.63-9.58-11.07-18.21-13.13-25.72c-2.06-7.51-1.74-13.83,1.04-18.86
	c2.78-5.03,7.95-8.68,15.4-10.94c7.45-2.26,17.12-3.11,28.76-2.61c23.28,1,54.28,7.42,90.85,18.62
	c73.14,22.38,168.42,63.83,268.49,119.02c100.07,55.2,185.95,113.68,243.9,163.6c28.98,24.97,50.95,47.76,64.21,66.92
	c6.63,9.58,11.07,18.21,13.13,25.72C916.35,797.33,916.03,803.65,913.26,808.69z"/>
<path class="st3" d="M883.68,862.31c-2.78,5.04-7.95,8.68-15.4,10.94c-7.45,2.26-17.12,3.11-28.76,2.61
	c-23.28-1-54.28-7.42-90.85-18.62c-73.14-22.39-168.42-63.83-268.49-119.03c-100.07-55.2-185.95-113.68-243.9-163.6
	c-28.98-24.96-50.94-47.76-64.21-66.92c-6.63-9.58-11.07-18.21-13.13-25.72c-2.06-7.51-1.74-13.82,1.04-18.86
	c2.78-5.04,7.95-8.68,15.4-10.94c7.45-2.26,17.12-3.11,28.76-2.61c23.28,1,54.28,7.42,90.86,18.62
	c73.14,22.39,168.42,63.83,268.49,119.03c100.07,55.2,185.95,113.68,243.9,163.6c28.98,24.97,50.94,47.76,64.21,66.92
	c6.63,9.58,11.07,18.21,13.13,25.72C886.78,850.96,886.45,857.28,883.68,862.31z"/>
<circle class="st4" cx="309.59" cy="338.58" r="22.66"/>
<circle class="st4" cx="732.89" cy="821.84" r="14.62"/>
<circle cx="236.48" cy="280.1" r="34.36"/>
<path d="M564.7,746.67c-9.22,3.15-19.75-3.09-23.42-13.92l-57.02-167.07l33.32-11.4l57.08,167.3
	C578.33,732.29,573.86,743.51,564.7,746.67z"/>
<path d="M559.72,748.73c-2.69,0-5.44-0.63-8.07-1.95c-5.33-2.63-9.56-7.56-11.62-13.63L483,566.08c-0.23-0.63,0.11-1.37,0.8-1.6
	l33.32-11.4c0.34-0.12,0.69-0.12,0.97,0.06c0.29,0.17,0.51,0.4,0.63,0.74l57.08,167.3c3.84,11.34-0.97,23.31-10.76,26.69
	C563.39,748.44,561.55,748.73,559.72,748.73z M485.87,566.48l56.62,165.87c1.83,5.44,5.61,9.91,10.31,12.2
	c3.78,1.83,7.84,2.18,11.51,0.92c8.47-2.92,12.6-13.46,9.16-23.48l-56.68-166.1L485.87,566.48z"/>
<path class="st4" d="M511.69,410.06l-107.81,76.92l-41.97,43.59l-16.49,29.15l-0.06,0.23c-3.26,5.04-1.37,16.67,4.75,28.52
	c6.01,11.68,14.48,19.82,20.44,20.28l-0.17,0.11l31.66,3.44l59.26-9.45l125.78-45.02l156.36,26.8l1.09,0.06
	c-39.27-7.33-92.29-59.85-130.82-134.14c-38.47-74.23-50.73-147.6-33.84-183.8h-0.06l-67.27,141.47L511.69,410.06z"/>
<path class="st5" d="M770.52,581.46c38.64-20.08,31.17-111.09-16.69-203.28c-47.86-92.19-117.98-150.66-156.62-130.58
	c-38.64,20.08-31.17,111.09,16.69,203.28C661.75,543.07,731.87,601.53,770.52,581.46z"/>
<path d="M753.52,586.69c-16.83,0-37.1-9.39-58.91-27.66c-29.71-24.86-58.86-63.18-82.04-107.96
	c-35.1-67.81-49.58-137.35-36.87-177.15c4.24-13.29,11.34-22.57,21.01-27.55c19.24-9.85,46.32-1.49,76.32,23.6
	c29.71,24.86,58.86,63.17,82.04,107.96c35.15,67.81,49.64,137.35,36.87,177.15c-4.24,13.29-11.33,22.57-21.01,27.55
	C765.71,585.38,759.88,586.69,753.52,586.69z M614.23,244.88c-5.9,0-11.39,1.2-16.32,3.78c-9.1,4.64-15.74,13.46-19.75,26.12
	c-12.54,39.23,1.89,108.02,36.7,175.26c47.41,91.47,116.91,150,154.98,130.47c9.1-4.64,15.74-13.46,19.75-26.12
	c12.54-39.23-1.89-108.02-36.7-175.26C711.61,299.52,653.67,244.88,614.23,244.88z"/>
<path d="M753.52,586.69c-16.83,0-37.1-9.39-58.91-27.66c-29.71-24.86-58.85-63.18-82.04-107.96
	c-35.1-67.81-49.58-137.35-36.87-177.15c4.24-13.29,11.34-22.57,21.01-27.55c12.88-6.64,29.71-4.98,48.66,4.75
	c18.15,9.34,37.79,25.89,56.91,47.82c0.46,0.52,0.4,1.32-0.11,1.78c-0.52,0.46-1.32,0.4-1.78-0.11
	c-38.82-44.56-78.09-64.49-102.48-51.95c-9.1,4.64-15.74,13.46-19.75,26.12c-12.54,39.23,1.89,108.02,36.7,175.26
	c41.22,79.56,99.22,134.25,138.61,134.25c5.9,0,11.39-1.2,16.32-3.78c9.1-4.64,15.74-13.46,19.75-26.12
	c12.54-39.23-1.89-108.02-36.7-175.26c-10.36-20.05-22.04-38.89-34.58-56.02c-0.4-0.57-0.29-1.37,0.29-1.78
	c0.57-0.4,1.37-0.29,1.78,0.29c12.65,17.24,24.33,36.2,34.81,56.36c35.1,67.76,49.58,137.29,36.81,177.1
	c-4.24,13.29-11.34,22.57-21.01,27.55C765.71,585.38,759.87,586.69,753.52,586.69z"/>
<path class="st4" d="M682.84,464.1c8.95-4.65,7.23-25.72-3.85-47.05c-11.08-21.34-27.31-34.86-36.26-30.21
	c-8.95,4.65-7.23,25.72,3.85,47.05C657.65,455.22,673.89,468.75,682.84,464.1z"/>
<path class="st4" d="M678.92,466.3c-9.85,0-23.59-12.72-33.49-31.9c-8.25-15.92-11.62-32.3-8.59-41.75
	c1.09-3.32,2.86-5.67,5.33-6.93c9.73-4.98,26.39,8.59,37.96,30.87c8.24,15.92,11.62,32.3,8.59,41.75c-1.09,3.32-2.86,5.67-5.32,6.93
	C682.01,465.96,680.52,466.3,678.92,466.3z M646.63,387.15c-1.2,0-2.35,0.23-3.32,0.74c-1.89,0.97-3.26,2.81-4.12,5.5
	c-2.81,8.82,0.46,24.51,8.42,39.86c10.53,20.33,26.39,34.02,34.58,29.78c1.89-0.97,3.26-2.81,4.12-5.5
	c2.8-8.88-0.52-24.51-8.42-39.86C668.62,399.86,655.33,387.15,646.63,387.15z"/>
<path d="M744.82,565.33c-14.77,0-32.52-8.25-51.64-24.23c-25.99-21.76-51.53-55.33-71.79-94.5c-30.74-59.34-43.4-120.22-32.29-155.1
	c3.72-11.68,9.96-19.82,18.49-24.23c19.58-10.02,48.38,1.55,79.06,31.73c0.52,0.52,0.52,1.26,0,1.78c-0.51,0.52-1.26,0.52-1.78,0
	c-29.89-29.38-57.65-40.84-76.14-31.27c-7.9,4.07-13.68,11.68-17.23,22.74c-10.93,34.25,1.66,94.39,32.12,153.21
	c36.01,69.59,86.68,117.36,121.15,117.36c5.15,0,9.9-1.09,14.25-3.27c7.9-4.07,13.68-11.68,17.23-22.74
	c10.94-34.25-1.66-94.39-32.12-153.21c-9.22-17.76-19.52-34.42-30.63-49.49c-0.4-0.57-0.29-1.37,0.29-1.78
	c0.57-0.4,1.37-0.29,1.78,0.29c11.22,15.23,21.58,31.96,30.86,49.83c30.75,59.34,43.4,120.22,32.29,155.1
	c-3.72,11.68-9.96,19.82-18.49,24.23C755.52,564.13,750.37,565.33,744.82,565.33z"/>
<path d="M402.11,613.5c-0.06,0-0.12,0-0.12,0l-31.66-3.44c-0.17,0-0.34-0.06-0.51-0.17c-6.53-1.03-14.77-9.28-20.78-20.85
	c-6.41-12.2-8.3-24.11-4.81-29.72l0.06-0.17l16.49-29.21c0.06-0.11,0.11-0.17,0.17-0.23l41.97-43.59c0.06-0.06,0.11-0.11,0.17-0.17
	L510.6,409.2l68.02-143.02c0.17-0.29,0.4-0.52,0.74-0.63c0.34-0.11,0.69-0.11,0.97,0.06c0.63,0.29,0.92,1.03,0.63,1.66
	c-17.23,36.94-3.61,110.37,33.84,182.65c37.5,72.4,89.77,126.01,130.02,133.39c0.63,0.12,1.09,0.69,1.03,1.37
	c-0.06,0.63-0.63,1.09-1.26,1.15l-1.09-0.06c-0.06,0-0.11,0-0.17,0l-156.07-26.75l-125.5,44.9c-0.06,0-0.17,0.06-0.23,0.06
	l-59.26,9.45C402.22,613.5,402.16,613.5,402.11,613.5z M371.25,607.66l30.86,3.32l58.97-9.45l125.72-44.96
	c0.23-0.06,0.4-0.11,0.63-0.06l140.5,24.06c-37.96-16.67-82.33-65.87-115.25-129.44c-32.69-63.12-47.29-127.21-39.28-167.7
	l-60.57,127.15c-0.11,0.17-0.23,0.34-0.4,0.46l-107.69,76.92l-41.8,43.36l-16.49,29.21c0,0.06-0.06,0.12-0.06,0.12
	c-2.98,4.64-0.97,16.09,4.81,27.26c5.67,10.94,13.85,19.19,19.46,19.59C370.9,607.49,371.07,607.54,371.25,607.66z"/>
<path class="st5" d="M511.86,409.6l67.96-142.9h0.06c-16.89,36.2-4.58,109.57,33.84,183.8c38.53,74.34,91.55,126.86,130.94,134.08
	l-1.09-0.06l-156.13-26.75l-3.61-0.63c-18.15-3.21-42.37-26.8-59.71-60.48c-17.81-34.54-20.95-68.96-13.05-85.34L511.86,409.6z"/>
<path d="M744.64,585.84C744.59,585.84,744.64,585.84,744.64,585.84l-1.14-0.06c-0.06,0-0.11,0-0.17,0L587.2,559.03l-3.61-0.63
	c-19.18-3.38-43.51-27.95-60.63-61.11c-19.41-37.69-20.38-71.25-13.05-86.49l0.86-1.72l67.96-142.84c0.17-0.29,0.4-0.52,0.74-0.63
	c0.34-0.11,0.69-0.11,0.97,0.06c0.63,0.29,0.92,1.03,0.63,1.66c-17.23,36.94-3.61,110.37,33.83,182.65
	c37.5,72.4,89.77,126.01,130.02,133.39c0.63,0.12,1.09,0.69,1.03,1.37C745.79,585.32,745.27,585.84,744.64,585.84z M573.29,283.42
	L513,410.17l-0.86,1.72c-7.27,15.12-5.15,48.91,13.05,84.2c16.78,32.53,40.42,56.59,58.86,59.79l3.61,0.63l140.21,24.06
	c-37.96-16.67-82.33-65.87-115.25-129.44C579.93,388.01,565.33,323.92,573.29,283.42z"/>
<path d="M400.39,613.33c-0.06,0-0.11,0-0.11,0l-30-3.21c-0.17,0-0.34-0.06-0.52-0.17c-6.53-1.03-14.77-9.28-20.78-20.85
	c-6.35-12.26-8.24-24.17-4.75-29.78l0.06-0.17l16.49-29.21c0.34-0.63,1.09-0.8,1.72-0.46c0.63,0.34,0.8,1.09,0.46,1.72l-16.49,29.33
	c0,0.06-0.06,0.11-0.06,0.11c-2.98,4.64-0.97,16.09,4.81,27.26c5.67,10.94,13.86,19.19,19.47,19.59c0.17,0,0.4,0.06,0.51,0.17
	l29.31,3.15c0.69,0.06,1.2,0.69,1.09,1.37C401.53,612.81,401.02,613.33,400.39,613.33z"/>
<path class="st5" d="M402.39,612.07c-9.73-0.69-23.36-14.49-33.26-33.56c-10.48-20.22-12.94-41.12-6.53-48.57l-17.12,29.78
	l-0.11,0.23c-3.26,5.04-1.37,16.67,4.75,28.52c6.01,11.68,14.48,19.82,20.44,20.27l-0.17,0.12L402.39,612.07z"/>
<path d="M402.39,613.33c-0.06,0-0.06,0-0.11,0c-0.23,0-0.52-0.06-0.74-0.06l-31.26-3.15c-0.17,0-0.34-0.06-0.52-0.17
	c-6.53-1.03-14.77-9.28-20.78-20.85c-6.35-12.26-8.24-24.17-4.75-29.78l0.06-0.17l15.06-26.23c0.57-1.49,1.32-2.81,2.23-3.9
	c0.4-0.51,1.14-0.57,1.66-0.23c0.51,0.4,0.69,1.09,0.34,1.66l-2.12,3.61c-3.38,9.11-0.06,26.98,8.64,43.7
	c9.45,18.27,22.33,31.62,31.55,32.82l0.69,0.06c0.69,0.06,1.2,0.69,1.14,1.37C403.54,612.81,403.02,613.33,402.39,613.33z
	 M371.19,607.66l21.87,2.23c-8.42-5.39-17.69-16.5-25.08-30.81c-7.16-13.8-10.71-28.12-10.13-38.43l-11.39,19.87
	c0,0.06-0.06,0.12-0.06,0.12c-2.98,4.64-0.97,16.09,4.81,27.26c5.67,10.94,13.86,19.19,19.47,19.59
	C370.85,607.49,371.07,607.54,371.19,607.66z"/>
<path d="M459.18,603.08l2.52-0.52c-13.63,2.86-35.15-17.76-50.32-47.02c-15.52-29.9-18.44-59.74-7.44-68.56l-1.43,1.43l-39.79,41.35
	c-6.53,7.33-4.12,28.35,6.41,48.68c10.13,19.59,24.5,33.56,34.29,33.51L459.18,603.08z"/>
<path d="M403.37,613.27c-10.42,0-24.91-14.03-35.38-34.19c-10.65-20.62-13.34-42.15-6.24-50.12l39.05-40.55
	c0.69-0.92,1.49-1.72,2.35-2.41c0.51-0.4,1.26-0.34,1.72,0.11c0.46,0.51,0.46,1.26,0,1.72l-2.23,2.35
	c-7.96,10.65-4.01,37.92,9.9,64.78c15,28.98,35.96,48.86,48.78,46.45l0.17-0.06c0.69-0.11,1.32,0.29,1.49,0.97
	c0.12,0.69-0.29,1.32-0.97,1.49c-0.06,0-0.12,0-0.17,0.06l-2.35,0.46h-0.06l-55.76,8.88C403.54,613.21,403.42,613.27,403.37,613.27z
	 M397.47,495.51l-33.84,35.17c-6.3,7.1-3.43,27.84,6.64,47.25c9.85,19.02,23.76,32.76,33.09,32.82l49.24-7.85
	c-13.28-4.7-29.66-22.39-42.31-46.74C398.27,532.97,393.63,509.37,397.47,495.51z"/>
<path d="M642.74,386.8c-8.99,4.58-7.67,25.83,3.78,47.02c19.18,35.45,34.47,31.27,36.24,30.64c0.06,0,0.06,0.06,0,0.06l-32.92,26.52
	c-9.68-13.57-18.89-28.7-27.37-45.02c-8.07-15.64-14.89-31.21-20.27-46.34L642.74,386.8z"/>
<path d="M649.84,492.3c-0.06,0-0.11,0-0.17,0c-0.34-0.06-0.63-0.23-0.86-0.51c-9.9-13.92-19.12-29.15-27.42-45.13
	c-7.96-15.35-14.83-30.99-20.32-46.45c-0.11-0.34-0.11-0.69,0.06-0.97c0.17-0.29,0.4-0.52,0.74-0.63l40.53-12.89
	c0.63-0.17,1.32,0.12,1.55,0.74c0.23,0.63,0,1.32-0.57,1.6c-1.95,0.97-3.38,2.92-4.24,5.79c-2.8,8.99,0.63,24.91,8.59,39.52
	c18.72,34.59,33.15,30.64,34.69,30.07c0.57-0.23,1.26,0.06,1.55,0.57c0.29,0.52,0.17,1.26-0.29,1.66l-33.03,26.35
	C650.41,492.19,650.12,492.3,649.84,492.3z M603.86,400.49c5.44,14.95,12.08,30.07,19.75,44.96c8.02,15.46,16.95,30.18,26.51,43.76
	l28.57-23.02c-6.53-0.29-18.84-5.16-33.26-31.79c-8.36-15.41-11.79-31.67-8.76-41.47c0.4-1.26,0.86-2.35,1.43-3.38L603.86,400.49z"
	/>
<path d="M812.13,305.1c26.17-13.75,36.3-46.03,22.61-72.1c-13.68-26.07-46-36.06-72.17-22.31c-26.17,13.75-36.3,46.03-22.61,72.1
	C753.64,308.86,785.95,318.85,812.13,305.1z"/>
<path class="st5" d="M762.97,246.08c2.52-3.44,6.24-5.56,10.48-6.01c3.21-0.34,6.18,0.34,8.99,2.06c1.43,0.86,2.69,1.95,3.89,3.26
	c0.86-1.55,1.89-2.92,3.09-4.07c2.35-2.29,5.15-3.61,8.3-3.95c4.24-0.46,8.36,0.8,11.56,3.61c3.15,2.75,5.15,6.76,5.67,11.28
	c0.51,4.64-0.75,9.11-3.95,14.03c-2.86,4.41-7.21,8.99-12.25,14.38c-1.72,1.83-3.66,3.89-5.67,6.07c-0.51,0.57-1.26,0.97-2.06,1.03
	c-0.8,0.11-1.55-0.11-2.23-0.57c-2.46-1.72-4.81-3.32-6.87-4.7c-6.07-4.12-11.34-7.67-15.11-11.34c-4.24-4.07-6.41-8.19-6.93-12.83
	C759.42,253.81,760.51,249.46,762.97,246.08z"/>
<path class="st4" d="M960.61,308.01c19.16-19.17,19.16-50.25,0-69.42c-19.16-19.17-50.23-19.17-69.39,0
	c-19.16,19.17-19.16,50.25,0,69.42C910.38,327.18,941.45,327.18,960.61,308.01z"/>
<path class="st4" d="M925.91,323.63c-27.71,0-50.33-22.57-50.33-50.35c0-27.72,22.56-50.35,50.33-50.35s50.32,22.57,50.32,50.35
	C976.23,301.01,953.67,323.63,925.91,323.63z M925.91,225.46c-26.34,0-47.81,21.42-47.81,47.82c0,26.35,21.41,47.82,47.81,47.82
	c26.34,0,47.8-21.42,47.8-47.82C973.71,246.94,952.3,225.46,925.91,225.46z"/>
<path d="M939.19,278.15c-2.75,0-5.15,1.32-6.76,3.38l-16.55-6.47c0-0.23,0.06-0.4,0.06-0.63c0-0.4-0.06-0.8-0.11-1.2l16.95-7.85
	c1.55,1.78,3.84,2.92,6.41,2.98c4.7,0,8.59-3.84,8.59-8.59c0-4.75-3.84-8.65-8.59-8.65c-4.69,0-8.59,3.84-8.59,8.59
	c0,0.4,0.06,0.8,0.11,1.2l-16.95,7.85c-1.55-1.78-3.84-2.92-6.41-2.98c-4.7,0-8.59,3.84-8.59,8.59c0,4.75,3.84,8.65,8.59,8.65
	c2.75,0,5.15-1.32,6.76-3.38l16.55,6.47c0,0.23-0.06,0.4-0.06,0.63c0,4.75,3.84,8.65,8.59,8.65c4.7,0,8.59-3.84,8.59-8.59
	C947.72,282.05,943.88,278.21,939.19,278.15z"/>
<path d="M939.84,463.59c22.47-15.6,28.11-46.37,12.61-68.71c-15.51-22.35-46.29-27.82-68.76-12.22
	c-22.47,15.6-28.11,46.37-12.61,68.71C886.58,473.72,917.37,479.19,939.84,463.59z"/>
<path class="st5" d="M899.4,446.6l-7.21-39.12c-0.34-2,1.49-3.67,3.43-3.15l42.65,12.08c2.18,0.63,2.69,3.44,0.92,4.81l-35.5,27.03
	C902.15,449.52,899.8,448.66,899.4,446.6z"/>
<path class="st4" d="M911.28,623.83c27.75-13.51,39.36-46.83,25.93-74.42c-13.42-27.59-46.8-39-74.55-25.48
	c-27.75,13.51-39.36,46.83-25.93,74.42C850.16,625.93,883.53,637.34,911.28,623.83z"/>
<path d="M886.69,630.8c-5.95,0-12.02-0.92-17.92-2.92c-14.43-4.81-26.11-14.89-32.86-28.52c-6.76-13.57-7.79-28.98-2.92-43.42
	c10.08-29.72,42.48-45.93,72.31-36.03c14.43,4.81,26.11,14.89,32.86,28.52c6.76,13.57,7.79,28.98,2.92,43.41
	C932.95,615.68,910.56,630.8,886.69,630.8z M887.26,519.57c-22.84,0-44.26,14.43-51.99,37.23c-4.64,13.8-3.66,28.52,2.8,41.47
	c6.47,13,17.63,22.68,31.43,27.26c28.51,9.45,59.49-6.01,69.1-34.42c4.64-13.8,3.66-28.52-2.81-41.47
	c-6.47-13-17.63-22.68-31.43-27.26C898.71,520.43,892.93,519.57,887.26,519.57z"/>
<path d="M915.43,564.87c-0.57,13.92-24.1,46.45-29.71,54.07c-0.57,0.8-1.78,0.75-2.29-0.11c-3.55-5.73-15.29-24.97-21.41-40.55
	c-2.46-6.19-4.01-11.8-3.84-15.75c0.63-15.81,13.97-28.12,29.77-27.49C903.75,535.78,916.06,549.07,915.43,564.87z"/>
<path class="st4" d="M896.06,573.01c5.12-5.12,5.12-13.43,0-18.55c-5.12-5.12-13.42-5.12-18.54,0c-5.12,5.12-5.12,13.43,0,18.55
	C882.64,578.13,890.95,578.13,896.06,573.01z"/>
</svg>
