<?xml version="1.0" encoding="utf-8"?>
<!-- Generator: Adobe Illustrator 26.5.0, SVG Export Plug-In . SVG Version: 6.00 Build 0)  -->
<svg version="1.1" id="Layer_1" xmlns="http://www.w3.org/2000/svg" xmlns:xlink="http://www.w3.org/1999/xlink" x="0px" y="0px"
	 viewBox="0 0 1080 1080" style="enable-background:new 0 0 1080 1080;" xml:space="preserve">
<style type="text/css">
	.st0{clip-path:url(#SVGID_00000059301154550698305710000017857451439587156670_);}
	.st1{stroke:#FFFFFF;stroke-width:1.4622;stroke-miterlimit:10;}
	.st2{clip-path:url(#SVGID_00000154414747275231924850000008449978366496452272_);}
	.st3{fill:none;stroke:#000000;stroke-width:1.4622;}
	.st4{fill:#B9FF66;}
	.st5{fill:#FFFFFF;}
	.st6{clip-path:url(#SVGID_00000042710008106796962000000009977444259222957953_);}
	.st7{clip-path:url(#SVGID_00000100377217536224240560000014543402362237926297_);}
</style>
<g>
	<defs>
		<rect id="SVGID_1_" x="1202.73" y="-91.86" width="52.64" height="52.64"/>
	</defs>
	<clipPath id="SVGID_00000056388115724540414040000000120887466005075584_">
		<use xlink:href="#SVGID_1_"  style="overflow:visible;"/>
	</clipPath>
	<g style="clip-path:url(#SVGID_00000056388115724540414040000000120887466005075584_);">
		<path class="st1" d="M1229.05-83.77l25.74-7.58l-7.51,25.81l7.51,25.74l-25.74-7.51l-25.81,7.51l7.58-25.74l-7.58-25.81
			L1229.05-83.77z"/>
	</g>
</g>
<g>
	<defs>
		
			<rect id="SVGID_00000166661791756230532590000001633367686247660677_" x="880.42" y="-237.25" transform="matrix(0.7071 -0.7071 0.7071 0.7071 404.3358 604.4748)" width="102.83" height="102.83"/>
	</defs>
	<clipPath id="SVGID_00000165955364762293806610000003058545531557120391_">
		<use xlink:href="#SVGID_00000166661791756230532590000001633367686247660677_"  style="overflow:visible;"/>
	</clipPath>
	<g style="clip-path:url(#SVGID_00000165955364762293806610000003058545531557120391_);">
		<path class="st1" d="M957.01-211.02l46.02,25.08l-46.02,25.28l-25.18,45.92l-25.18-45.92l-46.02-25.28l46.02-25.08l25.18-46.12
			L957.01-211.02z"/>
	</g>
</g>
<path class="st3" d="M1599.84-146.94c-2.78,5.04-7.95,8.68-15.4,10.94c-7.45,2.26-17.12,3.11-28.76,2.61
	c-23.28-1-54.28-7.42-90.85-18.62c-73.14-22.39-168.42-63.83-268.49-119.03c-100.07-55.2-185.95-113.68-243.9-163.6
	c-28.98-24.97-50.95-47.76-64.21-66.92c-6.63-9.58-11.07-18.21-13.13-25.72c-2.06-7.51-1.74-13.83,1.04-18.86
	c2.78-5.04,7.95-8.68,15.4-10.94c7.45-2.26,17.12-3.11,28.76-2.61c23.28,1,54.28,7.42,90.86,18.62
	c73.14,22.39,168.42,63.83,268.49,119.03c100.07,55.2,185.95,113.68,243.9,163.6c28.98,24.96,50.94,47.76,64.21,66.92
	c6.63,9.58,11.07,18.21,13.13,25.72C1602.94-158.29,1602.61-151.97,1599.84-146.94z"/>
<path class="st3" d="M1570.26-93.31c-2.78,5.04-7.95,8.68-15.4,10.94c-7.45,2.26-17.12,3.11-28.76,2.61
	c-23.28-1-54.28-7.42-90.86-18.62c-73.14-22.39-168.42-63.83-268.49-119.03c-100.07-55.2-185.95-113.68-243.9-163.6
	c-28.98-24.97-50.94-47.76-64.21-66.92c-6.63-9.58-11.07-18.21-13.13-25.72c-2.06-7.51-1.74-13.83,1.04-18.86
	c2.78-5.03,7.95-8.68,15.4-10.94c7.45-2.26,17.12-3.11,28.76-2.61c23.28,1,54.28,7.42,90.85,18.62
	c73.14,22.38,168.42,63.83,268.49,119.02c100.07,55.2,185.95,113.68,243.9,163.6c28.98,24.97,50.95,47.76,64.21,66.92
	c6.63,9.58,11.07,18.21,13.13,25.72C1573.35-104.67,1573.03-98.35,1570.26-93.31z"/>
<path class="st3" d="M1540.68-39.69c-2.78,5.04-7.95,8.68-15.4,10.94c-7.45,2.26-17.12,3.11-28.76,2.61
	c-23.28-1-54.28-7.42-90.85-18.62c-73.14-22.39-168.42-63.83-268.49-119.03c-100.07-55.2-185.95-113.68-243.9-163.6
	c-28.98-24.96-50.94-47.76-64.21-66.92c-6.63-9.58-11.07-18.21-13.13-25.72c-2.06-7.51-1.74-13.82,1.04-18.86s7.95-8.68,15.4-10.94
	c7.45-2.26,17.12-3.11,28.76-2.61c23.28,1,54.28,7.42,90.86,18.62c73.14,22.39,168.42,63.83,268.49,119.03
	c100.07,55.2,185.95,113.68,243.9,163.6c28.98,24.97,50.94,47.76,64.21,66.92c6.63,9.58,11.07,18.21,13.13,25.72
	C1543.78-51.04,1543.45-44.72,1540.68-39.69z"/>
<circle class="st4" cx="966.59" cy="-563.42" r="22.66"/>
<circle class="st4" cx="1389.89" cy="-80.16" r="14.62"/>
<circle cx="893.48" cy="-621.9" r="34.36"/>
<path d="M1221.7-155.33c-9.22,3.15-19.75-3.09-23.42-13.92l-57.02-167.07l33.32-11.4l57.08,167.3
	C1235.33-169.71,1230.86-158.49,1221.7-155.33z"/>
<path d="M1216.72-153.27c-2.69,0-5.44-0.63-8.07-1.95c-5.33-2.63-9.56-7.56-11.62-13.63L1140-335.92c-0.23-0.63,0.11-1.37,0.8-1.6
	l33.32-11.4c0.34-0.12,0.69-0.12,0.97,0.06c0.29,0.17,0.51,0.4,0.63,0.74l57.08,167.3c3.84,11.34-0.97,23.31-10.76,26.69
	C1220.39-153.56,1218.55-153.27,1216.72-153.27z M1142.87-335.52l56.62,165.87c1.83,5.44,5.61,9.91,10.31,12.2
	c3.78,1.83,7.84,2.18,11.51,0.92c8.47-2.92,12.6-13.46,9.16-23.48l-56.68-166.1L1142.87-335.52z"/>
<path class="st4" d="M1168.69-491.94l-107.81,76.92l-41.97,43.59l-16.49,29.15l-0.06,0.23c-3.26,5.04-1.37,16.67,4.75,28.52
	c6.01,11.68,14.48,19.82,20.44,20.28l-0.17,0.11l31.66,3.44l59.26-9.45l125.78-45.02l156.36,26.8l1.09,0.06
	c-39.27-7.33-92.29-59.85-130.82-134.14c-38.47-74.23-50.73-147.6-33.84-183.8h-0.06l-67.27,141.47L1168.69-491.94z"/>
<path class="st5" d="M1427.52-320.54c38.64-20.08,31.17-111.09-16.69-203.28c-47.86-92.19-117.98-150.66-156.62-130.58
	c-38.64,20.08-31.17,111.09,16.69,203.28C1318.75-358.93,1388.87-300.47,1427.52-320.54z"/>
<path d="M1410.52-315.31c-16.83,0-37.1-9.39-58.91-27.66c-29.71-24.86-58.86-63.18-82.04-107.96
	c-35.1-67.81-49.58-137.35-36.87-177.15c4.24-13.29,11.34-22.57,21.01-27.55c19.24-9.85,46.32-1.49,76.32,23.6
	c29.71,24.86,58.86,63.17,82.04,107.96c35.15,67.81,49.64,137.35,36.87,177.15c-4.24,13.29-11.33,22.57-21.01,27.55
	C1422.71-316.62,1416.88-315.31,1410.52-315.31z M1271.23-657.12c-5.9,0-11.39,1.2-16.32,3.78c-9.1,4.64-15.74,13.46-19.75,26.12
	c-12.54,39.23,1.89,108.02,36.7,175.26c47.41,91.47,116.91,150,154.98,130.47c9.1-4.64,15.74-13.46,19.75-26.12
	c12.54-39.23-1.89-108.02-36.7-175.26C1368.61-602.48,1310.67-657.12,1271.23-657.12z"/>
<path d="M1410.52-315.31c-16.83,0-37.1-9.39-58.91-27.66c-29.71-24.86-58.85-63.18-82.04-107.96
	c-35.1-67.81-49.58-137.35-36.87-177.15c4.24-13.29,11.34-22.57,21.01-27.55c12.88-6.64,29.71-4.98,48.66,4.75
	c18.15,9.34,37.79,25.89,56.91,47.82c0.46,0.52,0.4,1.32-0.11,1.78c-0.52,0.46-1.32,0.4-1.78-0.11
	c-38.82-44.56-78.09-64.49-102.48-51.95c-9.1,4.64-15.74,13.46-19.75,26.12c-12.54,39.23,1.89,108.02,36.7,175.26
	c41.22,79.56,99.22,134.25,138.61,134.25c5.9,0,11.39-1.2,16.32-3.78c9.1-4.64,15.74-13.46,19.75-26.12
	c12.54-39.23-1.89-108.02-36.7-175.26c-10.36-20.05-22.04-38.89-34.58-56.02c-0.4-0.57-0.29-1.37,0.29-1.78
	c0.57-0.4,1.37-0.29,1.78,0.29c12.65,17.24,24.33,36.2,34.81,56.36c35.1,67.76,49.58,137.29,36.81,177.1
	c-4.24,13.29-11.34,22.57-21.01,27.55C1422.71-316.62,1416.87-315.31,1410.52-315.31z"/>
<path class="st4" d="M1339.84-437.9c8.95-4.65,7.23-25.72-3.85-47.05c-11.08-21.34-27.31-34.86-36.26-30.21
	c-8.95,4.65-7.23,25.72,3.85,47.05C1314.65-446.78,1330.89-433.25,1339.84-437.9z"/>
<path class="st4" d="M1335.92-435.7c-9.85,0-23.59-12.72-33.49-31.9c-8.25-15.92-11.62-32.3-8.59-41.75
	c1.09-3.32,2.86-5.67,5.33-6.93c9.73-4.98,26.39,8.59,37.96,30.87c8.24,15.92,11.62,32.3,8.59,41.75c-1.09,3.32-2.86,5.67-5.32,6.93
	C1339.01-436.04,1337.52-435.7,1335.92-435.7z M1303.63-514.85c-1.2,0-2.35,0.23-3.32,0.74c-1.89,0.97-3.26,2.81-4.12,5.5
	c-2.81,8.82,0.46,24.51,8.42,39.86c10.53,20.33,26.39,34.02,34.58,29.78c1.89-0.97,3.26-2.81,4.12-5.5
	c2.8-8.88-0.52-24.51-8.42-39.86C1325.62-502.14,1312.33-514.85,1303.63-514.85z"/>
<path d="M1401.82-336.67c-14.77,0-32.52-8.25-51.64-24.23c-25.99-21.76-51.53-55.33-71.79-94.5
	c-30.74-59.34-43.4-120.22-32.29-155.1c3.72-11.68,9.96-19.82,18.49-24.23c19.58-10.02,48.38,1.55,79.06,31.73
	c0.52,0.52,0.52,1.26,0,1.78c-0.51,0.52-1.26,0.52-1.78,0c-29.89-29.38-57.65-40.84-76.14-31.27c-7.9,4.07-13.68,11.68-17.23,22.74
	c-10.93,34.25,1.66,94.39,32.12,153.21c36.01,69.59,86.68,117.36,121.15,117.36c5.15,0,9.9-1.09,14.25-3.27
	c7.9-4.07,13.68-11.68,17.23-22.74c10.94-34.25-1.66-94.39-32.12-153.21c-9.22-17.76-19.52-34.42-30.63-49.49
	c-0.4-0.57-0.29-1.37,0.29-1.78c0.57-0.4,1.37-0.29,1.78,0.29c11.22,15.23,21.58,31.96,30.86,49.83
	c30.75,59.34,43.4,120.22,32.29,155.1c-3.72,11.68-9.96,19.82-18.49,24.23C1412.52-337.87,1407.37-336.67,1401.82-336.67z"/>
<path d="M1059.11-288.5c-0.06,0-0.12,0-0.12,0l-31.66-3.44c-0.17,0-0.34-0.06-0.51-0.17c-6.53-1.03-14.77-9.28-20.78-20.85
	c-6.41-12.2-8.3-24.11-4.81-29.72l0.06-0.17l16.49-29.21c0.06-0.11,0.11-0.17,0.17-0.23l41.97-43.59c0.06-0.06,0.11-0.11,0.17-0.17
	l107.52-76.75l68.02-143.02c0.17-0.29,0.4-0.52,0.74-0.63c0.34-0.11,0.69-0.11,0.97,0.06c0.63,0.29,0.92,1.03,0.63,1.66
	c-17.23,36.94-3.61,110.37,33.83,182.65c37.5,72.4,89.77,126.01,130.02,133.39c0.63,0.12,1.09,0.69,1.03,1.37
	c-0.06,0.63-0.63,1.09-1.26,1.15l-1.09-0.06c-0.06,0-0.11,0-0.17,0l-156.07-26.75l-125.5,44.9c-0.06,0-0.17,0.06-0.23,0.06
	l-59.26,9.45C1059.22-288.5,1059.16-288.5,1059.11-288.5z M1028.25-294.34l30.86,3.32l58.97-9.45l125.72-44.96
	c0.23-0.06,0.4-0.11,0.63-0.06l140.5,24.06c-37.96-16.67-82.33-65.87-115.25-129.44c-32.69-63.12-47.29-127.21-39.28-167.7
	l-60.57,127.15c-0.11,0.17-0.23,0.34-0.4,0.46l-107.69,76.92l-41.8,43.36l-16.49,29.21c0,0.06-0.06,0.12-0.06,0.12
	c-2.98,4.64-0.97,16.09,4.81,27.26c5.67,10.94,13.85,19.19,19.46,19.59C1027.9-294.51,1028.07-294.46,1028.25-294.34z"/>
<path class="st5" d="M1168.86-492.4l67.96-142.9h0.06c-16.89,36.2-4.58,109.57,33.84,183.8c38.53,74.34,91.55,126.86,130.94,134.08
	l-1.09-0.06l-156.13-26.75l-3.61-0.63c-18.15-3.21-42.37-26.8-59.71-60.48c-17.81-34.54-20.95-68.96-13.05-85.34L1168.86-492.4z"/>
<path d="M1401.64-316.16C1401.59-316.16,1401.64-316.16,1401.64-316.16l-1.14-0.06c-0.06,0-0.11,0-0.17,0l-156.13-26.75l-3.61-0.63
	c-19.18-3.38-43.51-27.95-60.63-61.11c-19.41-37.69-20.38-71.25-13.05-86.49l0.86-1.72l67.96-142.84c0.17-0.29,0.4-0.52,0.74-0.63
	c0.34-0.11,0.69-0.11,0.97,0.06c0.63,0.29,0.92,1.03,0.63,1.66c-17.23,36.94-3.61,110.37,33.83,182.65
	c37.5,72.4,89.77,126.01,130.02,133.39c0.63,0.12,1.09,0.69,1.03,1.37C1402.79-316.68,1402.27-316.16,1401.64-316.16z
	 M1230.29-618.58L1170-491.83l-0.86,1.72c-7.27,15.12-5.15,48.91,13.05,84.2c16.78,32.53,40.42,56.59,58.86,59.79l3.61,0.63
	l140.21,24.06c-37.96-16.67-82.33-65.87-115.25-129.44C1236.93-513.99,1222.33-578.08,1230.29-618.58z"/>
<path d="M1057.39-288.67c-0.06,0-0.11,0-0.11,0l-30-3.21c-0.17,0-0.34-0.06-0.52-0.17c-6.53-1.03-14.77-9.28-20.78-20.85
	c-6.35-12.26-8.24-24.17-4.75-29.78l0.06-0.17l16.49-29.21c0.34-0.63,1.09-0.8,1.72-0.46c0.63,0.34,0.8,1.09,0.46,1.72l-16.49,29.33
	c0,0.06-0.06,0.11-0.06,0.11c-2.98,4.64-0.97,16.09,4.81,27.26c5.67,10.94,13.86,19.19,19.47,19.59c0.17,0,0.4,0.06,0.51,0.17
	l29.31,3.15c0.69,0.06,1.2,0.69,1.09,1.37C1058.53-289.19,1058.02-288.67,1057.39-288.67z"/>
<path class="st5" d="M1059.39-289.93c-9.73-0.69-23.36-14.49-33.26-33.56c-10.48-20.22-12.94-41.12-6.53-48.57l-17.12,29.78
	l-0.11,0.23c-3.26,5.04-1.37,16.67,4.75,28.52c6.01,11.68,14.48,19.82,20.44,20.27l-0.17,0.12L1059.39-289.93z"/>
<path d="M1059.39-288.67c-0.06,0-0.06,0-0.11,0c-0.23,0-0.52-0.06-0.74-0.06l-31.26-3.15c-0.17,0-0.34-0.06-0.52-0.17
	c-6.53-1.03-14.77-9.28-20.78-20.85c-6.35-12.26-8.24-24.17-4.75-29.78l0.06-0.17l15.06-26.23c0.57-1.49,1.32-2.81,2.23-3.9
	c0.4-0.51,1.14-0.57,1.66-0.23c0.51,0.4,0.69,1.09,0.34,1.66l-2.12,3.61c-3.38,9.11-0.06,26.98,8.64,43.7
	c9.45,18.27,22.33,31.62,31.55,32.82l0.69,0.06c0.69,0.06,1.2,0.69,1.14,1.37C1060.54-289.19,1060.02-288.67,1059.39-288.67z
	 M1028.19-294.34l21.87,2.23c-8.42-5.39-17.69-16.5-25.08-30.81c-7.16-13.8-10.71-28.12-10.13-38.43l-11.39,19.87
	c0,0.06-0.06,0.12-0.06,0.12c-2.98,4.64-0.97,16.09,4.81,27.26c5.67,10.94,13.86,19.19,19.47,19.59
	C1027.85-294.51,1028.07-294.46,1028.19-294.34z"/>
<path d="M1116.18-298.92l2.52-0.52c-13.63,2.86-35.15-17.76-50.32-47.02c-15.52-29.9-18.44-59.74-7.44-68.56l-1.43,1.43
	l-39.79,41.35c-6.53,7.33-4.12,28.35,6.41,48.68c10.13,19.59,24.5,33.56,34.29,33.51L1116.18-298.92z"/>
<path d="M1060.37-288.73c-10.42,0-24.91-14.03-35.38-34.19c-10.65-20.62-13.34-42.15-6.24-50.11l39.05-40.55
	c0.69-0.92,1.49-1.72,2.35-2.41c0.51-0.4,1.26-0.34,1.72,0.11c0.46,0.51,0.46,1.26,0,1.72l-2.23,2.35
	c-7.96,10.65-4.01,37.92,9.9,64.78c15,28.98,35.96,48.86,48.78,46.45l0.17-0.06c0.69-0.11,1.32,0.29,1.49,0.97
	c0.12,0.69-0.29,1.32-0.97,1.49c-0.06,0-0.12,0-0.17,0.06l-2.35,0.46h-0.06l-55.76,8.88
	C1060.54-288.79,1060.42-288.73,1060.37-288.73z M1054.47-406.49l-33.84,35.17c-6.3,7.1-3.43,27.84,6.64,47.25
	c9.85,19.02,23.76,32.76,33.09,32.82l49.24-7.85c-13.28-4.7-29.66-22.39-42.31-46.74C1055.27-369.03,1050.63-392.63,1054.47-406.49z
	"/>
<path d="M1299.74-515.2c-8.99,4.58-7.67,25.83,3.78,47.02c19.18,35.45,34.47,31.27,36.24,30.64c0.06,0,0.06,0.06,0,0.06
	l-32.92,26.52c-9.68-13.57-18.89-28.7-27.37-45.02c-8.07-15.64-14.89-31.21-20.27-46.34L1299.74-515.2z"/>
<path d="M1306.84-409.7c-0.06,0-0.11,0-0.17,0c-0.34-0.06-0.63-0.23-0.86-0.51c-9.9-13.92-19.12-29.15-27.42-45.13
	c-7.96-15.35-14.83-30.99-20.32-46.45c-0.11-0.34-0.11-0.69,0.06-0.97c0.17-0.29,0.4-0.52,0.74-0.63l40.53-12.89
	c0.63-0.17,1.32,0.12,1.55,0.74c0.23,0.63,0,1.32-0.57,1.6c-1.95,0.97-3.38,2.92-4.24,5.79c-2.8,8.99,0.63,24.91,8.59,39.52
	c18.72,34.59,33.15,30.64,34.69,30.07c0.57-0.23,1.26,0.06,1.55,0.57c0.29,0.52,0.17,1.26-0.29,1.66l-33.03,26.35
	C1307.41-409.81,1307.12-409.7,1306.84-409.7z M1260.86-501.51c5.44,14.95,12.08,30.07,19.75,44.96
	c8.02,15.46,16.95,30.18,26.51,43.76l28.57-23.02c-6.53-0.29-18.84-5.16-33.26-31.79c-8.36-15.41-11.79-31.67-8.76-41.47
	c0.4-1.26,0.86-2.35,1.43-3.38L1260.86-501.51z"/>
<path d="M1469.13-596.9c26.17-13.75,36.3-46.03,22.61-72.1c-13.68-26.07-46-36.06-72.17-22.31c-26.17,13.75-36.3,46.03-22.61,72.1
	C1410.64-593.14,1442.95-583.15,1469.13-596.9z"/>
<path class="st5" d="M1419.97-655.92c2.52-3.44,6.24-5.56,10.48-6.01c3.21-0.34,6.18,0.34,8.99,2.06c1.43,0.86,2.69,1.95,3.89,3.26
	c0.86-1.55,1.89-2.92,3.09-4.07c2.35-2.29,5.15-3.61,8.3-3.95c4.24-0.46,8.36,0.8,11.56,3.61c3.15,2.75,5.15,6.76,5.67,11.28
	c0.51,4.64-0.75,9.11-3.95,14.03c-2.86,4.41-7.21,8.99-12.25,14.38c-1.72,1.83-3.66,3.89-5.67,6.07c-0.51,0.57-1.26,0.97-2.06,1.03
	c-0.8,0.11-1.55-0.11-2.23-0.57c-2.46-1.72-4.81-3.32-6.87-4.7c-6.07-4.12-11.34-7.67-15.11-11.34c-4.24-4.07-6.41-8.19-6.93-12.83
	C1416.42-648.19,1417.51-652.54,1419.97-655.92z"/>
<path class="st4" d="M1617.61-593.99c19.16-19.17,19.16-50.25,0-69.42c-19.16-19.17-50.23-19.17-69.39,0
	c-19.16,19.17-19.16,50.25,0,69.42C1567.38-574.82,1598.45-574.82,1617.61-593.99z"/>
<path class="st4" d="M1582.91-578.37c-27.71,0-50.33-22.57-50.33-50.34c0-27.72,22.56-50.35,50.33-50.35
	c27.77,0,50.32,22.57,50.32,50.35C1633.23-600.99,1610.67-578.37,1582.91-578.37z M1582.91-676.54c-26.34,0-47.81,21.42-47.81,47.82
	c0,26.35,21.41,47.82,47.81,47.82c26.34,0,47.8-21.42,47.8-47.82C1630.71-655.06,1609.3-676.54,1582.91-676.54z"/>
<path d="M1596.19-623.85c-2.75,0-5.15,1.32-6.76,3.38l-16.55-6.47c0-0.23,0.06-0.4,0.06-0.63c0-0.4-0.06-0.8-0.11-1.2l16.95-7.85
	c1.55,1.78,3.84,2.92,6.41,2.98c4.7,0,8.59-3.84,8.59-8.59s-3.84-8.65-8.59-8.65c-4.69,0-8.59,3.84-8.59,8.59
	c0,0.4,0.06,0.8,0.11,1.2l-16.95,7.85c-1.55-1.78-3.84-2.92-6.41-2.98c-4.7,0-8.59,3.84-8.59,8.59c0,4.75,3.84,8.65,8.59,8.65
	c2.75,0,5.15-1.32,6.76-3.38l16.55,6.47c0,0.23-0.06,0.4-0.06,0.63c0,4.75,3.84,8.65,8.59,8.65c4.7,0,8.59-3.84,8.59-8.59
	C1604.72-619.95,1600.88-623.79,1596.19-623.85z"/>
<path d="M1596.84-438.41c22.47-15.6,28.11-46.37,12.61-68.71c-15.51-22.35-46.29-27.82-68.76-12.22
	c-22.47,15.6-28.11,46.37-12.61,68.71C1543.58-428.28,1574.37-422.81,1596.84-438.41z"/>
<path class="st5" d="M1556.4-455.4l-7.21-39.12c-0.34-2,1.49-3.67,3.43-3.15l42.65,12.08c2.18,0.63,2.69,3.44,0.92,4.81l-35.5,27.03
	C1559.15-452.48,1556.8-453.34,1556.4-455.4z"/>
<path class="st4" d="M1568.28-278.17c27.75-13.51,39.36-46.83,25.93-74.42c-13.42-27.59-46.8-39-74.55-25.48
	c-27.75,13.51-39.36,46.83-25.93,74.42C1507.16-276.07,1540.53-264.66,1568.28-278.17z"/>
<path d="M1543.69-271.2c-5.95,0-12.02-0.92-17.92-2.92c-14.43-4.81-26.11-14.89-32.86-28.52c-6.76-13.57-7.79-28.98-2.92-43.42
	c10.08-29.72,42.48-45.93,72.31-36.03c14.43,4.81,26.11,14.89,32.86,28.52c6.76,13.57,7.79,28.98,2.92,43.41
	C1589.95-286.32,1567.56-271.2,1543.69-271.2z M1544.26-382.43c-22.84,0-44.26,14.43-51.99,37.23c-4.64,13.8-3.66,28.52,2.8,41.47
	c6.47,13,17.63,22.68,31.43,27.26c28.51,9.45,59.49-6.01,69.1-34.42c4.64-13.8,3.66-28.52-2.81-41.47
	c-6.47-13-17.63-22.68-31.43-27.26C1555.71-381.57,1549.93-382.43,1544.26-382.43z"/>
<path d="M1572.43-337.13c-0.57,13.92-24.1,46.45-29.71,54.07c-0.57,0.8-1.78,0.75-2.29-0.11c-3.55-5.73-15.29-24.97-21.41-40.55
	c-2.46-6.19-4.01-11.8-3.84-15.75c0.63-15.81,13.97-28.12,29.77-27.49C1560.75-366.22,1573.06-352.93,1572.43-337.13z"/>
<path class="st4" d="M1553.06-328.99c5.12-5.12,5.12-13.43,0-18.55c-5.12-5.12-13.42-5.12-18.54,0c-5.12,5.12-5.12,13.43,0,18.55
	C1539.64-323.87,1547.95-323.87,1553.06-328.99z"/>
<g>
	<defs>
		<rect id="SVGID_00000135658183090769700430000016284426800105722295_" x="49.11" y="414.78" width="981.78" height="250.43"/>
	</defs>
	<clipPath id="SVGID_00000097491723050893103370000002427543283724938382_">
		<use xlink:href="#SVGID_00000135658183090769700430000016284426800105722295_"  style="overflow:visible;"/>
	</clipPath>
	<g style="clip-path:url(#SVGID_00000097491723050893103370000002427543283724938382_);">
		<g>
			<defs>
				<rect id="SVGID_00000039823633048136708700000013404593135979687047_" x="49.11" y="459.5" width="160.99" height="160.99"/>
			</defs>
			<clipPath id="SVGID_00000181766589206331376570000003199354876130509454_">
				<use xlink:href="#SVGID_00000039823633048136708700000013404593135979687047_"  style="overflow:visible;"/>
			</clipPath>
			<g style="clip-path:url(#SVGID_00000181766589206331376570000003199354876130509454_);">
				<path d="M129.6,484.25l78.71-23.19L185.35,540l22.97,78.71l-78.71-22.97l-78.94,22.97L73.85,540l-23.19-78.94L129.6,484.25z"/>
			</g>
		</g>
		<path d="M267.88,598.14V472.92h49.73c7.63,0,14.43,1.55,20.39,4.65c6.08,2.98,10.79,7.27,14.13,12.88
			c3.46,5.49,5.19,12.1,5.19,19.86v2.33c0,7.75-1.79,14.43-5.37,20.03c-3.46,5.6-8.17,9.9-14.13,12.88
			c-5.96,2.98-12.7,4.47-20.21,4.47H287.2v48.12H267.88z M287.2,532.49h28.44c6.8,0,12.22-1.79,16.28-5.37
			c4.05-3.58,6.08-8.47,6.08-14.67v-1.79c0-6.32-2.03-11.27-6.08-14.85c-4.05-3.58-9.48-5.37-16.28-5.37H287.2V532.49z"/>
		<path d="M415.08,600.64c-8.82,0-16.7-1.79-23.61-5.37c-6.8-3.7-12.16-8.94-16.1-15.74c-3.94-6.8-5.9-14.85-5.9-24.15v-2.68
			c0-9.3,1.97-17.29,5.9-23.97c3.94-6.8,9.3-12.04,16.1-15.74c6.92-3.7,14.79-5.55,23.61-5.55c8.82,0,16.7,1.85,23.61,5.55
			c6.92,3.7,12.34,8.94,16.28,15.74c3.94,6.68,5.9,14.67,5.9,23.97v2.68c0,9.3-1.97,17.35-5.9,24.15
			c-3.94,6.8-9.36,12.04-16.28,15.74C431.77,598.85,423.9,600.64,415.08,600.64z M415.08,584.18c8.11,0,14.67-2.56,19.68-7.69
			c5.13-5.25,7.69-12.46,7.69-21.64v-1.61c0-9.18-2.5-16.34-7.51-21.47c-5.01-5.25-11.63-7.87-19.86-7.87
			c-7.99,0-14.55,2.62-19.68,7.87c-5.01,5.13-7.51,12.28-7.51,21.47v1.61c0,9.18,2.5,16.4,7.51,21.64
			C400.53,581.62,407.09,584.18,415.08,584.18z"/>
		<path d="M519.95,600.64c-11.21,0-20.51-2.5-27.91-7.51c-7.39-5.01-11.93-12.58-13.6-22.72l17.17-4.11
			c0.95,4.89,2.56,8.77,4.83,11.63c2.27,2.86,5.07,4.89,8.41,6.08c3.46,1.19,7.16,1.79,11.09,1.79c5.85,0,10.32-1.13,13.42-3.4
			c3.22-2.27,4.83-5.19,4.83-8.77s-1.49-6.2-4.47-7.87c-2.98-1.67-7.39-3.04-13.24-4.11l-6.08-1.07
			c-5.96-1.07-11.39-2.62-16.28-4.65c-4.89-2.03-8.77-4.83-11.63-8.41c-2.86-3.58-4.29-8.17-4.29-13.77c0-8.35,3.1-14.79,9.3-19.32
			c6.2-4.65,14.43-6.98,24.69-6.98c9.9,0,18.01,2.27,24.33,6.8c6.44,4.41,10.61,10.43,12.52,18.07l-17.17,4.83
			c-1.07-5.37-3.34-9.12-6.8-11.27c-3.46-2.27-7.75-3.4-12.88-3.4c-5.01,0-8.94,0.95-11.81,2.86c-2.86,1.79-4.29,4.35-4.29,7.69
			c0,3.58,1.37,6.2,4.11,7.87c2.86,1.67,6.68,2.92,11.45,3.76l6.26,1.07c6.32,1.07,12.11,2.56,17.35,4.47
			c5.25,1.91,9.36,4.65,12.34,8.23c3.1,3.58,4.65,8.35,4.65,14.31c0,8.82-3.28,15.68-9.84,20.57S531.04,600.64,519.95,600.64z"/>
		<path d="M577.8,598.14v-88.19h18.42v88.19H577.8z M587.1,497.96c-3.58,0-6.62-1.13-9.12-3.4c-2.39-2.38-3.58-5.43-3.58-9.12
			c0-3.7,1.19-6.68,3.58-8.94c2.5-2.38,5.55-3.58,9.12-3.58c3.69,0,6.73,1.19,9.12,3.58c2.38,2.27,3.58,5.25,3.58,8.94
			c0,3.7-1.19,6.74-3.58,9.12C593.83,496.83,590.79,497.96,587.1,497.96z"/>
		<path d="M656.66,598.14c-5.37,0-9.66-1.61-12.88-4.83c-3.1-3.22-4.65-7.51-4.65-12.88v-54.92H614.8v-15.56h24.33v-29.16h18.42
			v29.16h26.3v15.56h-26.3v51.7c0,3.58,1.67,5.37,5.01,5.37h18.42v15.56H656.66z"/>
		<path d="M705.49,598.14v-88.19h18.42v88.19H705.49z M714.79,497.96c-3.58,0-6.62-1.13-9.12-3.4c-2.38-2.38-3.58-5.43-3.58-9.12
			c0-3.7,1.19-6.68,3.58-8.94c2.5-2.38,5.55-3.58,9.12-3.58c3.7,0,6.74,1.19,9.12,3.58c2.39,2.27,3.58,5.25,3.58,8.94
			c0,3.7-1.19,6.74-3.58,9.12C721.53,496.83,718.49,497.96,714.79,497.96z"/>
		<path d="M771.65,598.14l-29.69-88.19h19.5l23.43,74.59h2.86l23.43-74.59h19.5l-29.69,88.19H771.65z"/>
		<path d="M882.37,599.75c-6.68,0-12.64-1.49-17.89-4.47c-5.25-2.98-9.36-7.21-12.34-12.7c-2.98-5.49-4.47-12.04-4.47-19.68v-52.95
			h18.42v51.7c0,7.63,1.91,13.3,5.72,16.99c3.82,3.58,9.12,5.37,15.92,5.37c7.51,0,13.54-2.5,18.07-7.51
			c4.65-5.13,6.98-12.46,6.98-22v-44.54h18.42v88.19h-18.07V584.9h-2.86c-1.67,3.58-4.65,6.98-8.94,10.2
			C897.04,598.2,890.72,599.75,882.37,599.75z"/>
		<path d="M994.58,600.64c-11.21,0-20.51-2.5-27.91-7.51c-7.4-5.01-11.93-12.58-13.6-22.72l17.17-4.11
			c0.95,4.89,2.56,8.77,4.83,11.63c2.26,2.86,5.07,4.89,8.41,6.08c3.46,1.19,7.16,1.79,11.09,1.79c5.84,0,10.31-1.13,13.42-3.4
			c3.22-2.27,4.83-5.19,4.83-8.77s-1.49-6.2-4.47-7.87c-2.98-1.67-7.4-3.04-13.24-4.11l-6.08-1.07c-5.97-1.07-11.39-2.62-16.28-4.65
			c-4.89-2.03-8.77-4.83-11.63-8.41c-2.86-3.58-4.29-8.17-4.29-13.77c0-8.35,3.1-14.79,9.3-19.32c6.2-4.65,14.43-6.98,24.69-6.98
			c9.9,0,18,2.27,24.33,6.8c6.44,4.41,10.61,10.43,12.52,18.07l-17.17,4.83c-1.07-5.37-3.34-9.12-6.8-11.27
			c-3.46-2.27-7.75-3.4-12.88-3.4c-5.01,0-8.94,0.95-11.81,2.86c-2.86,1.79-4.29,4.35-4.29,7.69c0,3.58,1.37,6.2,4.11,7.87
			c2.86,1.67,6.68,2.92,11.45,3.76l6.26,1.07c6.32,1.07,12.1,2.56,17.35,4.47c5.25,1.91,9.36,4.65,12.34,8.23
			c3.1,3.58,4.65,8.35,4.65,14.31c0,8.82-3.28,15.68-9.84,20.57C1014.49,598.2,1005.67,600.64,994.58,600.64z"/>
	</g>
</g>
</svg>
